<svg width="41" height="41" viewBox="0 0 41 41" fill="none" xmlns="http://www.w3.org/2000/svg">
<g clip-path="url(#clip0_159_183)">
<g clip-path="url(#clip1_159_183)">
<path d="M16.375 5.54463H8.875C8.29483 5.54463 7.73843 5.77512 7.3282 6.18535C6.91797 6.59558 6.6875 7.15198 6.6875 7.73213V32.7322C6.6875 33.3124 6.91797 33.8687 7.3282 34.2789C7.73843 34.6892 8.29483 34.9197 8.875 34.9197H16.375C16.6623 34.9197 16.9467 34.863 17.2122 34.753C17.4775 34.6432 17.7187 34.482 17.9218 34.2789C18.125 34.0759 18.286 33.8347 18.396 33.5692C18.506 33.3039 18.5625 33.0194 18.5625 32.7322V7.73213C18.5625 7.44487 18.506 7.16042 18.396 6.89502C18.286 6.62962 18.125 6.38847 17.9218 6.18535C17.7187 5.98222 17.4775 5.82108 17.2122 5.71115C16.9467 5.60122 16.6623 5.54463 16.375 5.54463ZM8.5625 12.4196H16.6875V28.0447H8.5625V12.4196ZM8.875 7.41963H16.375C16.4579 7.41963 16.5374 7.45257 16.596 7.51117C16.6546 7.56977 16.6875 7.64927 16.6875 7.73213V10.5446H8.5625V7.73213C8.5625 7.64927 8.59542 7.56977 8.65403 7.51117C8.71263 7.45257 8.79212 7.41963 8.875 7.41963ZM16.375 33.0447H8.875C8.79212 33.0447 8.71263 33.0117 8.65403 32.953C8.59542 32.8946 8.5625 32.8151 8.5625 32.7322V29.9197H16.6875V32.7322C16.6875 32.8151 16.6546 32.8946 16.596 32.953C16.5374 33.0117 16.4579 33.0447 16.375 33.0447ZM36.0157 30.7009L30.8297 6.03838C30.7712 5.75605 30.6573 5.48808 30.495 5.24987C30.3325 5.01167 30.1245 4.80792 29.883 4.65037C29.6415 4.49282 29.3713 4.38455 29.0878 4.33182C28.8043 4.27908 28.5132 4.28292 28.2313 4.34308L20.9172 5.91495C20.3512 6.03938 19.857 6.38198 19.542 6.86845C19.2268 7.3549 19.1163 7.94597 19.2343 8.51338L24.4203 33.1712C24.4793 33.4545 24.594 33.7234 24.7575 33.962C24.9212 34.2007 25.1305 34.4045 25.3735 34.5619C25.725 34.7919 26.136 34.9146 26.5563 34.9149C26.7138 34.9157 26.8712 34.899 27.025 34.8649L34.339 33.2947C34.903 33.1687 35.3948 32.8262 35.7085 32.3411C36.0222 31.8559 36.1325 31.2667 36.0157 30.7009ZM23.0765 17.6822L31.0032 15.979L33.2093 26.4727L25.2813 28.1712L23.0765 17.6822ZM22.0407 12.7509L29.9687 11.0431L30.6172 14.1384L22.6907 15.8415L22.0407 12.7509ZM21.3125 7.75088L28.625 6.18058C28.6468 6.17847 28.6688 6.17847 28.6907 6.18058C28.749 6.18065 28.8062 6.19805 28.8547 6.23058C28.8905 6.25343 28.9215 6.28337 28.9453 6.31857C28.9693 6.35377 28.9857 6.39348 28.9937 6.43527L29.5797 9.21963L21.6547 10.9103L21.0703 8.13213C21.052 8.0491 21.0672 7.96222 21.1125 7.89027C21.1578 7.81833 21.2297 7.76713 21.3125 7.74777V7.75088ZM33.939 31.4697L26.625 33.0447C26.5858 33.0534 26.5453 33.0541 26.5058 33.0469C26.4665 33.0396 26.4288 33.0245 26.3953 33.0024C26.3595 32.9795 26.3285 32.9497 26.3047 32.9144C26.2807 32.8792 26.2643 32.8396 26.2563 32.7977L25.6703 30.0134L33.5953 28.3102L34.1875 31.0806C34.1967 31.1222 34.1975 31.1654 34.19 31.2074C34.1825 31.2492 34.1667 31.2894 34.1437 31.3252C34.1205 31.361 34.0905 31.3921 34.0555 31.4164C34.0203 31.4406 33.9808 31.4576 33.939 31.4666V31.4697Z" fill="#1D1A17"/>
</g>
</g>
<defs>
<clipPath id="clip0_159_183">
<rect width="40" height="40" fill="white" transform="translate(0.125 0.232422)"/>
</clipPath>
<clipPath id="clip1_159_183">
<rect width="40" height="40" fill="white" transform="translate(0.125 0.232422)"/>
</clipPath>
</defs>
</svg>
