<svg width="28" height="33" viewBox="0 0 28 33" fill="none" xmlns="http://www.w3.org/2000/svg">
<path d="M26.7383 0.189453H5.48828C4.24508 0.189453 3.0528 0.68332 2.17371 1.56239C1.29465 2.44147 0.800781 3.63375 0.800781 4.87695V31.127C0.800781 31.3756 0.899548 31.6141 1.07536 31.7898C1.25118 31.9656 1.48965 32.0645 1.73828 32.0645H24.2383C24.4869 32.0645 24.7254 31.9656 24.9011 31.7898C25.0769 31.6141 25.1758 31.3756 25.1758 31.127C25.1758 30.8783 25.0769 30.6398 24.9011 30.4641C24.7254 30.2883 24.4869 30.1895 24.2383 30.1895H2.67578V29.877C2.67578 29.131 2.9721 28.4156 3.49955 27.8883C4.027 27.3608 4.74236 27.0645 5.48828 27.0645H26.7383C26.9869 27.0645 27.2254 26.9656 27.4011 26.7898C27.5769 26.6141 27.6758 26.3756 27.6758 26.127V1.12695C27.6758 0.87832 27.5769 0.639853 27.4011 0.464037C27.2254 0.28822 26.9869 0.189453 26.7383 0.189453ZM25.8008 25.1895H5.48828C4.47381 25.188 3.48648 25.5171 2.67578 26.127V4.87695C2.67578 4.13104 2.9721 3.41567 3.49955 2.88822C4.027 2.36077 4.74236 2.06445 5.48828 2.06445H25.8008V25.1895Z" fill="#1D1A17"/>
</svg>
