<svg width="41" height="41" viewBox="0 0 41 41" fill="none" xmlns="http://www.w3.org/2000/svg">
<g clip-path="url(#clip0_159_169)">
<path d="M28.875 5.54492H11.375C10.1318 5.54492 8.93952 6.03879 8.06043 6.91786C7.18137 7.79694 6.6875 8.98922 6.6875 10.2324V32.7324C6.6875 33.3126 6.91797 33.8689 7.3282 34.2793C7.73843 34.6894 8.29483 34.9199 8.875 34.9199H12.625C13.2052 34.9199 13.7616 34.6894 14.1718 34.2793C14.582 33.8689 14.8125 33.3126 14.8125 32.7324V29.9199H25.4375V32.7324C25.4375 33.3126 25.668 33.8689 26.0782 34.2793C26.4885 34.6894 27.0448 34.9199 27.625 34.9199H31.375C31.9552 34.9199 32.5115 34.6894 32.9218 34.2793C33.332 33.8689 33.5625 33.3126 33.5625 32.7324V10.2324C33.5625 8.98922 33.0687 7.79694 32.1895 6.91786C31.3105 6.03879 30.1182 5.54492 28.875 5.54492ZM8.5625 28.0449V18.6699H31.6875V28.0449H8.5625ZM8.5625 12.4199H31.6875V16.7949H8.5625V12.4199ZM11.375 7.41992H28.875C29.621 7.41992 30.3363 7.71624 30.8637 8.24369C31.3912 8.77114 31.6875 9.48651 31.6875 10.2324V10.5449H8.5625V10.2324C8.5625 9.48651 8.85882 8.77114 9.38627 8.24369C9.91372 7.71624 10.6291 7.41992 11.375 7.41992ZM12.9375 32.7324C12.9375 32.8153 12.9046 32.8948 12.846 32.9534C12.7874 33.0119 12.7079 33.0449 12.625 33.0449H8.875C8.79212 33.0449 8.71263 33.0119 8.65403 32.9534C8.59542 32.8948 8.5625 32.8153 8.5625 32.7324V29.9199H12.9375V32.7324ZM31.375 33.0449H27.625C27.5422 33.0449 27.4627 33.0119 27.404 32.9534C27.3455 32.8948 27.3125 32.8153 27.3125 32.7324V29.9199H31.6875V32.7324C31.6875 32.8153 31.6545 32.8948 31.596 32.9534C31.5373 33.0119 31.4578 33.0449 31.375 33.0449ZM16.0625 23.3574C16.0625 23.6664 15.9709 23.9686 15.7992 24.2254C15.6275 24.4824 15.3835 24.6828 15.0979 24.8009C14.8124 24.9193 14.4983 24.9503 14.1952 24.8899C13.8921 24.8296 13.6137 24.6808 13.3952 24.4623C13.1766 24.2438 13.0278 23.9654 12.9675 23.6623C12.9072 23.3591 12.9382 23.0449 13.0564 22.7594C13.1747 22.4739 13.375 22.2299 13.6319 22.0583C13.8889 21.8866 14.191 21.7949 14.5 21.7949C14.9144 21.7949 15.3118 21.9596 15.6049 22.2526C15.8979 22.5456 16.0625 22.9431 16.0625 23.3574ZM27.3125 23.3574C27.3125 23.6664 27.2208 23.9686 27.0492 24.2254C26.8775 24.4824 26.6335 24.6828 26.348 24.8009C26.0625 24.9193 25.7483 24.9503 25.4452 24.8899C25.142 24.8296 24.8637 24.6808 24.6452 24.4623C24.4267 24.2438 24.2778 23.9654 24.2175 23.6623C24.1572 23.3591 24.1882 23.0449 24.3065 22.7594C24.4247 22.4739 24.625 22.2299 24.882 22.0583C25.1388 21.8866 25.441 21.7949 25.75 21.7949C26.1643 21.7949 26.5618 21.9596 26.8548 22.2526C27.1478 22.5456 27.3125 22.9431 27.3125 23.3574ZM38.5625 12.7324V16.4824C38.5625 16.7311 38.4637 16.9696 38.2878 17.1453C38.1122 17.3211 37.8737 17.4199 37.625 17.4199C37.3763 17.4199 37.1378 17.3211 36.9622 17.1453C36.7863 16.9696 36.6875 16.7311 36.6875 16.4824V12.7324C36.6875 12.4838 36.7863 12.2453 36.9622 12.0695C37.1378 11.8937 37.3763 11.7949 37.625 11.7949C37.8737 11.7949 38.1122 11.8937 38.2878 12.0695C38.4637 12.2453 38.5625 12.4838 38.5625 12.7324ZM3.5625 12.7324V16.4824C3.5625 16.7311 3.46373 16.9696 3.28792 17.1453C3.1121 17.3211 2.87363 17.4199 2.625 17.4199C2.37637 17.4199 2.1379 17.3211 1.96208 17.1453C1.78627 16.9696 1.6875 16.7311 1.6875 16.4824V12.7324C1.6875 12.4838 1.78627 12.2453 1.96208 12.0695C2.1379 11.8937 2.37637 11.7949 2.625 11.7949C2.87363 11.7949 3.1121 11.8937 3.28792 12.0695C3.46373 12.2453 3.5625 12.4838 3.5625 12.7324Z" fill="#1D1A17"/>
</g>
<defs>
<clipPath id="clip0_159_169">
<rect width="40" height="40" fill="white" transform="translate(0.125 0.232422)"/>
</clipPath>
</defs>
</svg>
