<svg width="33" height="27" viewBox="0 0 33 27" fill="none" xmlns="http://www.w3.org/2000/svg">
<path d="M29.9883 4.21875H16.5508L12.1336 0.90625C11.7549 0.622266 11.2944 0.46875 10.8211 0.46875H2.48828C1.90811 0.46875 1.35171 0.699217 0.941481 1.10945C0.531248 1.51968 0.300781 2.07608 0.300781 2.65625V23.9062C0.300781 24.4864 0.531248 25.0428 0.941481 25.4531C1.35171 25.8633 1.90811 26.0938 2.48828 26.0938H29.9883C30.5684 26.0938 31.1248 25.8633 31.5351 25.4531C31.9453 25.0428 32.1758 24.4864 32.1758 23.9062V6.40625C32.1758 5.82608 31.9453 5.26968 31.5351 4.85945C31.1248 4.44922 30.5684 4.21875 29.9883 4.21875ZM2.17578 2.65625C2.17578 2.57337 2.2087 2.49388 2.26731 2.43528C2.32591 2.37667 2.4054 2.34375 2.48828 2.34375H10.8211C10.8887 2.34375 10.9545 2.36568 11.0086 2.40625L14.6758 5.15625L11.0086 7.90625C10.9545 7.94682 10.8887 7.96875 10.8211 7.96875H2.17578V2.65625ZM30.3008 23.9062C30.3008 23.9891 30.2678 24.0686 30.2093 24.1273C30.1506 24.1858 30.0711 24.2188 29.9883 24.2188H2.48828C2.4054 24.2188 2.32591 24.1858 2.26731 24.1273C2.2087 24.0686 2.17578 23.9891 2.17578 23.9062V9.84375H10.8211C11.2944 9.84375 11.7549 9.69025 12.1336 9.40625L16.5508 6.09375H29.9883C30.0711 6.09375 30.1506 6.12667 30.2093 6.18528C30.2678 6.24388 30.3008 6.32337 30.3008 6.40625V23.9062ZM20.9258 16.4062C20.9258 16.6549 20.8269 16.8934 20.6511 17.0691C20.4754 17.2449 20.2369 17.3438 19.9883 17.3438H12.4883C12.2396 17.3438 12.0012 17.2449 11.8254 17.0691C11.6495 16.8934 11.5508 16.6549 11.5508 16.4062C11.5508 16.1576 11.6495 15.9191 11.8254 15.7434C12.0012 15.5676 12.2396 15.4688 12.4883 15.4688H19.9883C20.2369 15.4688 20.4754 15.5676 20.6511 15.7434C20.8269 15.9191 20.9258 16.1576 20.9258 16.4062Z" fill="#1D1A17"/>
</svg>
