<svg width="41" height="41" viewBox="0 0 41 41" fill="none" xmlns="http://www.w3.org/2000/svg">
<g clip-path="url(#clip0_159_198)">
<g clip-path="url(#clip1_159_198)">
<path d="M31.3742 24.2946C30.256 24.2941 29.1749 24.6949 28.3272 25.4242L24.3242 22.3102C24.6452 21.6646 24.812 20.9532 24.8117 20.2321C24.8114 20.0441 24.7999 19.8562 24.7772 19.6696L27.3117 18.8259C27.879 19.8114 28.7854 20.5572 29.8619 20.9241C30.9382 21.2911 32.1114 21.2541 33.1625 20.8202C34.2139 20.3862 35.0715 19.5851 35.5757 18.5657C36.08 17.5462 36.1964 16.3784 35.9034 15.2795C35.6104 14.1806 34.9279 13.2258 33.983 12.5929C33.038 11.9599 31.8954 11.6921 30.7677 11.8392C29.64 11.9863 28.6042 12.5384 27.8534 13.3926C27.1025 14.2468 26.6879 15.3448 26.6867 16.4821C26.687 16.6701 26.6985 16.8579 26.721 17.0446L24.1867 17.8884C23.6909 17.0244 22.9319 16.3416 22.0207 15.9394C21.1094 15.5372 20.0934 15.4366 19.121 15.6524L17.8492 12.793C18.7947 12.1187 19.4564 11.1173 19.7057 9.98304C19.955 8.84872 19.7745 7.66222 19.1989 6.65347C18.6234 5.64474 17.6937 4.88559 16.5903 4.52315C15.4869 4.16072 14.2883 4.22082 13.2266 4.69179C12.165 5.16275 11.316 6.01107 10.8442 7.07232C10.3724 8.13357 10.3114 9.33219 10.673 10.4359C11.0345 11.5396 11.793 12.4697 12.8013 13.0461C13.8095 13.6225 14.9959 13.804 16.1304 13.5555L17.4022 16.4149C16.452 17.0907 15.7885 18.0974 15.5422 19.2372C15.2959 20.3771 15.4845 21.5679 16.071 22.5759L11.6867 26.4821C10.7543 25.7841 9.59602 25.4571 8.43632 25.5646C7.27664 25.6721 6.19812 26.2062 5.40989 27.0636C4.62165 27.9211 4.17984 29.0406 4.17009 30.2052C4.16034 31.3697 4.58334 32.4966 5.35709 33.3671C6.13085 34.2376 7.20025 34.7897 8.358 34.9166C9.51574 35.0434 10.6793 34.7359 11.6232 34.0536C12.5671 33.3714 13.2241 32.3629 13.4668 31.2239C13.7094 30.0847 13.5205 28.8961 12.9367 27.8884L17.3117 23.9821C18.1634 24.6222 19.208 24.9521 20.2729 24.9171C21.3377 24.8822 22.3585 24.4844 23.1664 23.7899L27.1695 26.9039C26.7177 27.8172 26.5759 28.8527 26.7654 29.8539C26.9549 30.8549 27.4654 31.7671 28.2195 32.4521C28.9739 33.1371 29.9307 33.5577 30.9454 33.6502C31.96 33.7427 32.9772 33.5022 33.8429 32.9649C34.7085 32.4277 35.3757 31.6231 35.7432 30.6727C36.1105 29.7226 36.1585 28.6784 35.8795 27.6984C35.6004 26.7186 35.0097 25.8562 34.1969 25.2421C33.3839 24.6279 32.393 24.2952 31.3742 24.2946ZM31.3742 13.6696C31.9304 13.6696 32.4742 13.8345 32.9367 14.1436C33.3992 14.4526 33.7597 14.8919 33.9725 15.4058C34.1854 15.9197 34.2412 16.4852 34.1325 17.0307C34.024 17.5764 33.7562 18.0776 33.3629 18.4709C32.9695 18.8642 32.4684 19.1321 31.9229 19.2406C31.3772 19.3491 30.8117 19.2934 30.2979 19.0806C29.7839 18.8676 29.3447 18.5072 29.0357 18.0446C28.7265 17.5821 28.5617 17.0384 28.5617 16.4821C28.5617 15.7362 28.858 15.0208 29.3854 14.4934C29.9129 13.9659 30.6282 13.6696 31.3742 13.6696ZM12.3117 8.98209C12.3117 8.42582 12.4766 7.88205 12.7857 7.41954C13.0947 6.95704 13.5339 6.59655 14.0479 6.38367C14.5618 6.1708 15.1273 6.1151 15.6729 6.22362C16.2184 6.33215 16.7196 6.60002 17.1129 6.99335C17.5062 7.38669 17.774 7.88782 17.8825 8.43339C17.9912 8.97897 17.9354 9.54447 17.7225 10.0584C17.5097 10.5723 17.1492 11.0116 16.6867 11.3206C16.2242 11.6296 15.6804 11.7946 15.1242 11.7946C14.3782 11.7946 13.6629 11.4983 13.1354 10.9708C12.608 10.4434 12.3117 9.728 12.3117 8.98209ZM8.87415 33.0446C8.31789 33.0446 7.77412 32.8796 7.31162 32.5706C6.8491 32.2616 6.48862 31.8222 6.27574 31.3084C6.06287 30.7944 6.00717 30.2289 6.1157 29.6834C6.22422 29.1379 6.49209 28.6367 6.88542 28.2434C7.27875 27.8501 7.77989 27.5822 8.32547 27.4736C8.87104 27.3651 9.43654 27.4207 9.95045 27.6337C10.4644 27.8466 10.9036 28.2071 11.2127 28.6696C11.5217 29.1321 11.6867 29.6759 11.6867 30.2321C11.6867 30.9781 11.3903 31.6934 10.8629 32.2209C10.3355 32.7482 9.62007 33.0446 8.87415 33.0446ZM20.1242 23.0446C19.5679 23.0446 19.0242 22.8796 18.5615 22.5706C18.099 22.2616 17.7385 21.8222 17.5257 21.3084C17.3129 20.7944 17.2572 20.2289 17.3657 19.6834C17.4742 19.1379 17.742 18.6367 18.1354 18.2434C18.5287 17.8501 19.0299 17.5822 19.5755 17.4736C20.121 17.3651 20.6865 17.4209 21.2004 17.6337C21.7144 17.8466 22.1537 18.2071 22.4627 18.6696C22.7717 19.1321 22.9367 19.6759 22.9367 20.2321C22.9367 20.9781 22.6404 21.6934 22.1129 22.2209C21.5854 22.7482 20.87 23.0446 20.1242 23.0446ZM31.3742 31.7946C30.8179 31.7946 30.2742 31.6296 29.8115 31.3206C29.349 31.0116 28.9885 30.5722 28.7757 30.0584C28.5629 29.5444 28.5072 28.9789 28.6157 28.4334C28.7242 27.8879 28.992 27.3867 29.3854 26.9934C29.7787 26.6001 30.2799 26.3322 30.8255 26.2236C31.371 26.1151 31.9365 26.1707 32.4505 26.3837C32.9644 26.5966 33.4037 26.9571 33.7127 27.4196C34.0217 27.8821 34.1867 28.4259 34.1867 28.9821C34.1867 29.7281 33.8904 30.4434 33.3629 30.9709C32.8354 31.4982 32.12 31.7946 31.3742 31.7946Z" fill="#1D1A17"/>
</g>
</g>
<defs>
<clipPath id="clip0_159_198">
<rect width="40" height="40" fill="white" transform="translate(0.125 0.232422)"/>
</clipPath>
<clipPath id="clip1_159_198">
<rect width="40" height="40" fill="white" transform="translate(0.125 0.232422)"/>
</clipPath>
</defs>
</svg>
