<svg width="30" height="32" viewBox="0 0 30 32" fill="none" xmlns="http://www.w3.org/2000/svg">
<path d="M27.5819 0.96875H2.89453C2.27293 0.96875 1.67678 1.21568 1.23725 1.65522C0.797715 2.09475 0.550781 2.6909 0.550781 3.3125V11.0016C0.550898 11.4514 0.680464 11.8917 0.923998 12.2698C1.16755 12.6481 1.51476 12.9481 1.92421 13.1344L12.2993 17.8438C10.7978 18.5166 9.57265 19.6841 8.82835 21.1513C8.08405 22.6186 7.86565 24.2967 8.20963 25.9056C8.55361 27.5146 9.43915 28.9568 10.7184 29.9913C11.9976 31.0259 13.5931 31.5904 15.2383 31.5904C16.8834 31.5904 18.4789 31.0259 19.7581 29.9913C21.0374 28.9568 21.9229 27.5146 22.2669 25.9056C22.6109 24.2967 22.3924 22.6186 21.6483 21.1513C20.9039 19.6841 19.6788 18.5166 18.1773 17.8438L28.5523 13.1281C28.9608 12.9424 29.3074 12.6432 29.5509 12.2662C29.7943 11.8892 29.9244 11.4503 29.9258 11.0016V3.3125C29.9258 2.6909 29.6788 2.09475 29.2393 1.65522C28.7998 1.21568 28.2036 0.96875 27.5819 0.96875ZM20.5508 2.84375V14.7188L15.2383 17.1327L9.92578 14.7188V2.84375H20.5508ZM2.42578 11.0016V3.3125C2.42578 3.18818 2.47516 3.06895 2.56308 2.98105C2.65098 2.89313 2.77021 2.84375 2.89453 2.84375H8.05078V13.8594L2.70078 11.4281C2.61883 11.3909 2.54931 11.3309 2.50056 11.2553C2.4518 11.1796 2.42583 11.0916 2.42578 11.0016ZM20.5508 24.4063C20.5508 25.4569 20.2393 26.4841 19.6554 27.3578C19.0718 28.2314 18.2419 28.9123 17.2713 29.3144C16.3006 29.7164 15.2324 29.8216 14.2018 29.6168C13.1713 29.4118 12.2248 28.9058 11.4818 28.1628C10.7388 27.4198 10.2328 26.4733 10.0279 25.4428C9.82288 24.4121 9.92808 23.3439 10.3302 22.3732C10.7323 21.4026 11.4132 20.5728 12.2868 19.9891C13.1604 19.4053 14.1876 19.0938 15.2383 19.0938C16.6473 19.0938 17.9984 19.6534 18.9948 20.6498C19.9911 21.6461 20.5508 22.9973 20.5508 24.4063ZM28.0508 11.0016C28.0508 11.0916 28.0248 11.1796 27.9759 11.2553C27.9273 11.3309 27.8578 11.3909 27.7758 11.4281L22.4258 13.8594V2.84375H27.5819C27.7063 2.84375 27.8256 2.89313 27.9134 2.98105C28.0014 3.06895 28.0508 3.18818 28.0508 3.3125V11.0016Z" fill="#1D1A17"/>
</svg>
