<svg width="41" height="41" viewBox="0 0 41 41" fill="none" xmlns="http://www.w3.org/2000/svg">
<g clip-path="url(#clip0_159_213)">
<g clip-path="url(#clip1_159_213)">
<path d="M28.5625 17.7324C28.5625 17.9811 28.4637 18.2196 28.2878 18.3953C28.1122 18.5711 27.8737 18.6699 27.625 18.6699H17.625C17.3763 18.6699 17.1378 18.5711 16.9622 18.3953C16.7863 18.2196 16.6875 17.9811 16.6875 17.7324C16.6875 17.4838 16.7863 17.2453 16.9622 17.0696C17.1378 16.8937 17.3763 16.7949 17.625 16.7949H27.625C27.8737 16.7949 28.1122 16.8937 28.2878 17.0696C28.4637 17.2453 28.5625 17.4838 28.5625 17.7324ZM27.625 21.7949H17.625C17.3763 21.7949 17.1378 21.8938 16.9622 22.0696C16.7863 22.2453 16.6875 22.4838 16.6875 22.7324C16.6875 22.9811 16.7863 23.2196 16.9622 23.3953C17.1378 23.5711 17.3763 23.6699 17.625 23.6699H27.625C27.8737 23.6699 28.1122 23.5711 28.2878 23.3953C28.4637 23.2196 28.5625 22.9811 28.5625 22.7324C28.5625 22.4838 28.4637 22.2453 28.2878 22.0696C28.1122 21.8938 27.8737 21.7949 27.625 21.7949ZM34.8125 7.73242V32.7324C34.8125 33.3126 34.582 33.8689 34.1718 34.2793C33.7615 34.6894 33.2052 34.9199 32.625 34.9199H7.625C7.04483 34.9199 6.48843 34.6894 6.0782 34.2793C5.66797 33.8689 5.4375 33.3126 5.4375 32.7324V7.73242C5.4375 7.15226 5.66797 6.59585 6.0782 6.18562C6.48843 5.77539 7.04483 5.54492 7.625 5.54492H32.625C33.2052 5.54492 33.7615 5.77539 34.1718 6.18562C34.582 6.59585 34.8125 7.15226 34.8125 7.73242ZM7.625 33.0449H11.6875V7.41992H7.625C7.54212 7.41992 7.46263 7.45284 7.40403 7.51146C7.34542 7.57006 7.3125 7.64954 7.3125 7.73242V32.7324C7.3125 32.8153 7.34542 32.8948 7.40403 32.9534C7.46263 33.0119 7.54212 33.0449 7.625 33.0449ZM32.9375 7.73242C32.9375 7.64954 32.9045 7.57006 32.846 7.51146C32.7873 7.45284 32.7078 7.41992 32.625 7.41992H13.5625V33.0449H32.625C32.7078 33.0449 32.7873 33.0119 32.846 32.9534C32.9045 32.8948 32.9375 32.8153 32.9375 32.7324V7.73242Z" fill="#1D1A17"/>
</g>
</g>
<defs>
<clipPath id="clip0_159_213">
<rect width="40" height="40" fill="white" transform="translate(0.125 0.232422)"/>
</clipPath>
<clipPath id="clip1_159_213">
<rect width="40" height="40" fill="white" transform="translate(0.125 0.232422)"/>
</clipPath>
</defs>
</svg>
