<svg width="28" height="35" viewBox="0 0 28 35" fill="none" xmlns="http://www.w3.org/2000/svg">
<path d="M20.1758 21.877C20.1758 22.1256 20.0769 22.3641 19.9011 22.54C19.7254 22.7158 19.4869 22.8145 19.2383 22.8145H9.23828C8.98965 22.8145 8.75118 22.7158 8.57536 22.54C8.39955 22.3641 8.30078 22.1256 8.30078 21.877C8.30078 21.6283 8.39955 21.39 8.57536 21.2141C8.75118 21.0383 8.98965 20.9395 9.23828 20.9395H19.2383C19.4869 20.9395 19.7254 21.0383 19.9011 21.2141C20.0769 21.39 20.1758 21.6283 20.1758 21.877ZM19.2383 15.9395H9.23828C8.98965 15.9395 8.75118 16.0383 8.57536 16.2141C8.39955 16.39 8.30078 16.6283 8.30078 16.877C8.30078 17.1256 8.39955 17.3641 8.57536 17.54C8.75118 17.7156 8.98965 17.8145 9.23828 17.8145H19.2383C19.4869 17.8145 19.7254 17.7156 19.9011 17.54C20.0769 17.3641 20.1758 17.1256 20.1758 16.877C20.1758 16.6283 20.0769 16.39 19.9011 16.2141C19.7254 16.0383 19.4869 15.9395 19.2383 15.9395ZM27.6758 5.62697V31.877C27.6758 32.4571 27.4453 33.0135 27.0351 33.4238C26.6248 33.834 26.0684 34.0645 25.4883 34.0645H2.98828C2.40811 34.0645 1.85171 33.834 1.44148 33.4238C1.03125 33.0135 0.800781 32.4571 0.800781 31.877V5.62697C0.800781 5.04682 1.03125 4.49042 1.44148 4.08019C1.85171 3.66994 2.40811 3.43947 2.98828 3.43947H8.7961C9.46953 2.65527 10.3045 2.02585 11.2438 1.59435C12.1831 1.16285 13.2046 0.939453 14.2383 0.939453C15.2719 0.939453 16.2934 1.16285 17.2328 1.59435C18.1721 2.02585 19.0071 2.65527 19.6804 3.43947H25.4883C26.0684 3.43947 26.6248 3.66994 27.0351 4.08019C27.4453 4.49042 27.6758 5.04682 27.6758 5.62697ZM8.92578 8.12697V8.43947H19.5508V8.12697C19.5508 6.71802 18.9911 5.36675 17.9948 4.37047C16.9984 3.37419 15.6473 2.81447 14.2383 2.81447C12.8293 2.81447 11.4781 3.37419 10.4818 4.37047C9.48548 5.36675 8.92578 6.71802 8.92578 8.12697ZM25.8008 5.62697C25.8008 5.5441 25.7678 5.4646 25.7093 5.406C25.6506 5.3474 25.5711 5.31447 25.4883 5.31447H20.8523C21.2316 6.20359 21.4266 7.16035 21.4258 8.12697V9.37697C21.4258 9.62562 21.3269 9.86407 21.1511 10.0399C20.9754 10.2157 20.7369 10.3145 20.4883 10.3145H7.98828C7.73965 10.3145 7.50118 10.2157 7.32536 10.0399C7.14955 9.86407 7.05078 9.62562 7.05078 9.37697V8.12697C7.0499 7.16035 7.24496 6.20359 7.62421 5.31447H2.98828C2.9054 5.31447 2.82591 5.3474 2.76731 5.406C2.7087 5.4646 2.67578 5.5441 2.67578 5.62697V31.877C2.67578 31.9598 2.7087 32.0393 2.76731 32.098C2.82591 32.1566 2.9054 32.1895 2.98828 32.1895H25.4883C25.5711 32.1895 25.6506 32.1566 25.7093 32.098C25.7678 32.0393 25.8008 31.9598 25.8008 31.877V5.62697Z" fill="#1D1A17"/>
</svg>
