<svg width="1793" height="245" viewBox="0 0 1793 245" fill="none" xmlns="http://www.w3.org/2000/svg">
<g clip-path="url(#clip0_159_62)">
<mask id="mask0_159_62" style="mask-type:luminance" maskUnits="userSpaceOnUse" x="0" y="-45" width="1793" height="334">
<path d="M1792.12 -44.4023H0.125V288.866H1792.12V-44.4023Z" fill="white"/>
</mask>
<g mask="url(#mask0_159_62)">
<mask id="mask1_159_62" style="mask-type:luminance" maskUnits="userSpaceOnUse" x="0" y="-45" width="499" height="169">
<path d="M498.662 -44.4023H0.125V123.598H498.662V-44.4023Z" fill="white"/>
</mask>
<g mask="url(#mask1_159_62)">
<path d="M498.662 -44.4023H0.125V123.598H498.662V-44.4023Z" fill="#FFDF8B"/>
<path fill-rule="evenodd" clip-rule="evenodd" d="M0.125 123.596C45.7981 123.341 82.7449 85.8313 82.7449 39.5977C82.7449 -6.63594 45.7981 -44.1456 0.125 -44.401L165.834 -44.4023C119.945 -44.4023 82.7449 -6.79425 82.7449 39.5977C82.7449 85.9896 119.945 123.598 165.834 123.598L0.125 123.596ZM166.304 123.596L165.834 123.598C165.992 123.598 166.147 123.598 166.304 123.596ZM166.304 -44.401C166.147 -44.4019 165.992 -44.4023 165.834 -44.4023L166.304 -44.401Z" fill="#F7AB37"/>
<path fill-rule="evenodd" clip-rule="evenodd" d="M249.394 -127.928C203.505 -127.928 166.305 -90.7273 166.305 -44.8383V-43.0172C166.305 2.87187 203.505 40.0723 249.394 40.0723C203.505 40.0723 166.305 77.2727 166.305 123.162V124.983C166.305 170.871 203.505 208.072 249.394 208.072C295.282 208.072 332.483 170.871 332.483 124.983V123.162C332.483 77.2727 295.282 40.0723 249.394 40.0723C295.282 40.0723 332.483 2.87187 332.483 -43.0172V-44.8383C332.483 -90.7273 295.282 -127.928 249.394 -127.928Z" fill="#479BB1"/>
<path fill-rule="evenodd" clip-rule="evenodd" d="M415.573 -127.928C369.683 -127.928 332.482 -90.7273 332.482 -44.8383V-43.0172C332.482 2.87187 369.683 40.0723 415.573 40.0723C369.683 40.0723 332.482 77.2727 332.482 123.162V124.983C332.482 170.871 369.683 208.072 415.573 208.072C461.461 208.072 498.662 170.871 498.662 124.983V123.162C498.662 77.2727 461.461 40.0723 415.573 40.0723C461.461 40.0723 498.662 2.87187 498.662 -43.0172V-44.8383C498.662 -90.7273 461.461 -127.928 415.573 -127.928Z" fill="#FA8958"/>
</g>
<mask id="mask2_159_62" style="mask-type:luminance" maskUnits="userSpaceOnUse" x="498" y="-45" width="502" height="169">
<path d="M999.93 -44.4023H498.662V123.598H999.93V-44.4023Z" fill="white"/>
</mask>
<g mask="url(#mask2_159_62)">
<path d="M999.93 -44.4023H498.662V123.598H999.93V-44.4023Z" fill="#FFDF8B"/>
<path fill-rule="evenodd" clip-rule="evenodd" d="M498.662 123.596C544.585 123.341 581.735 85.8313 581.735 39.5977C581.735 -6.63594 544.585 -44.1456 498.662 -44.401L665.28 -44.4023C619.139 -44.4023 581.735 -6.79425 581.735 39.5977C581.735 85.9896 619.139 123.598 665.28 123.598L498.662 123.596ZM665.751 123.596L665.28 123.598C665.437 123.598 665.594 123.598 665.751 123.596ZM665.751 -44.401C665.594 -44.4019 665.437 -44.4023 665.28 -44.4023L665.751 -44.401Z" fill="#F7AB37"/>
<path fill-rule="evenodd" clip-rule="evenodd" d="M749.297 -127.928C703.157 -127.928 665.752 -90.0682 665.752 -43.9277C665.752 2.21271 703.157 40.0723 749.297 40.0723C703.157 40.0723 665.752 77.9318 665.752 124.072C665.752 170.213 703.157 208.072 749.297 208.072C795.437 208.072 832.842 170.213 832.842 124.072C832.842 77.9318 795.437 40.0723 749.297 40.0723C795.437 40.0723 832.842 2.21271 832.842 -43.9277C832.842 -90.0682 795.437 -127.928 749.297 -127.928Z" fill="#479BB1"/>
<path fill-rule="evenodd" clip-rule="evenodd" d="M916.386 -127.928C870.246 -127.928 832.842 -90.0682 832.842 -43.9277C832.842 2.21271 870.246 40.0723 916.386 40.0723C870.246 40.0723 832.842 77.9318 832.842 124.072C832.842 170.213 870.246 208.072 916.386 208.072C962.527 208.072 999.931 170.213 999.931 124.072C999.931 77.9318 962.527 40.0723 916.386 40.0723C962.527 40.0723 999.931 2.21271 999.931 -43.9277C999.931 -90.0682 962.527 -127.928 916.386 -127.928Z" fill="#FA8958"/>
</g>
<mask id="mask3_159_62" style="mask-type:luminance" maskUnits="userSpaceOnUse" x="999" y="-45" width="500" height="169">
<path d="M1498.47 -44.4023H999.93V123.598H1498.47V-44.4023Z" fill="white"/>
</mask>
<g mask="url(#mask3_159_62)">
<path d="M1498.47 -44.4023H999.93V123.598H1498.47V-44.4023Z" fill="#FFDF8B"/>
<path fill-rule="evenodd" clip-rule="evenodd" d="M999.93 123.596C1045.6 123.341 1082.55 85.8313 1082.55 39.5977C1082.55 -6.63594 1045.6 -44.1456 999.93 -44.401L1165.64 -44.4023C1119.75 -44.4023 1082.55 -6.79425 1082.55 39.5977C1082.55 85.9896 1119.75 123.598 1165.64 123.598L999.93 123.596ZM1166.11 123.596L1165.64 123.598C1165.8 123.598 1165.95 123.598 1166.11 123.596ZM1166.11 -44.401C1165.95 -44.4019 1165.8 -44.4023 1165.64 -44.4023L1166.11 -44.401Z" fill="#F7AB37"/>
<path fill-rule="evenodd" clip-rule="evenodd" d="M1249.2 -127.928C1203.31 -127.928 1166.11 -90.7273 1166.11 -44.8383V-43.0172C1166.11 2.87187 1203.31 40.0723 1249.2 40.0723C1203.31 40.0723 1166.11 77.2727 1166.11 123.162V124.983C1166.11 170.871 1203.31 208.072 1249.2 208.072C1295.09 208.072 1332.29 170.871 1332.29 124.983V123.162C1332.29 77.2727 1295.09 40.0723 1249.2 40.0723C1295.09 40.0723 1332.29 2.87187 1332.29 -43.0172V-44.8383C1332.29 -90.7273 1295.09 -127.928 1249.2 -127.928Z" fill="#479BB1"/>
<path fill-rule="evenodd" clip-rule="evenodd" d="M1415.38 -127.928C1369.49 -127.928 1332.29 -90.7273 1332.29 -44.8383V-43.0172C1332.29 2.87187 1369.49 40.0723 1415.38 40.0723C1369.49 40.0723 1332.29 77.2727 1332.29 123.162V124.983C1332.29 170.871 1369.49 208.072 1415.38 208.072C1461.26 208.072 1498.47 170.871 1498.47 124.983V123.162C1498.47 77.2727 1461.26 40.0723 1415.38 40.0723C1461.26 40.0723 1498.47 2.87187 1498.47 -43.0172V-44.8383C1498.47 -90.7273 1461.26 -127.928 1415.38 -127.928Z" fill="#FA8958"/>
</g>
<mask id="mask4_159_62" style="mask-type:luminance" maskUnits="userSpaceOnUse" x="1498" y="-45" width="500" height="169">
<path d="M1997 -44.4023H1498.47V123.598H1997V-44.4023Z" fill="white"/>
</mask>
<g mask="url(#mask4_159_62)">
<path d="M1997 -44.4023H1498.47V123.598H1997V-44.4023Z" fill="#FFDF8B"/>
<path fill-rule="evenodd" clip-rule="evenodd" d="M1498.47 123.596C1544.14 123.341 1581.09 85.8313 1581.09 39.5977C1581.09 -6.63594 1544.14 -44.1456 1498.47 -44.401L1664.17 -44.4023C1618.29 -44.4023 1581.09 -6.79425 1581.09 39.5977C1581.09 85.9896 1618.29 123.598 1664.17 123.598L1498.47 123.596ZM1664.65 123.596L1664.17 123.598C1664.34 123.598 1664.49 123.598 1664.65 123.596ZM1664.65 -44.401C1664.49 -44.4019 1664.34 -44.4023 1664.17 -44.4023L1664.65 -44.401Z" fill="#F7AB37"/>
<path fill-rule="evenodd" clip-rule="evenodd" d="M1747.74 -127.928C1701.84 -127.928 1664.65 -90.7273 1664.65 -44.8383V-43.0172C1664.65 2.87187 1701.84 40.0723 1747.74 40.0723C1701.84 40.0723 1664.65 77.2727 1664.65 123.162V124.983C1664.65 170.871 1701.84 208.072 1747.74 208.072C1793.63 208.072 1830.82 170.871 1830.82 124.983V123.162C1830.82 77.2727 1793.63 40.0723 1747.74 40.0723C1793.63 40.0723 1830.82 2.87187 1830.82 -43.0172V-44.8383C1830.82 -90.7273 1793.63 -127.928 1747.74 -127.928Z" fill="#479BB1"/>
</g>
<mask id="mask5_159_62" style="mask-type:luminance" maskUnits="userSpaceOnUse" x="0" y="123" width="499" height="166">
<path d="M498.662 123.598H0.125V288.866H498.662V123.598Z" fill="white"/>
</mask>
<g mask="url(#mask5_159_62)">
<path d="M498.662 123.598H0.125V288.866H498.662V123.598Z" fill="#FFDF8B"/>
<path fill-rule="evenodd" clip-rule="evenodd" d="M166.303 288.866L166.304 124.065V123.598C166.304 123.753 166.304 123.909 166.304 124.065C166.304 169.702 129.104 206.699 83.2144 206.699C37.3254 206.699 0.125002 169.702 0.125 124.065C0.125 123.909 0.125433 123.753 0.126298 123.598L0.125 124.065L0.125007 288.866C0.377673 243.443 37.4819 206.699 83.2144 206.699C128.947 206.699 166.05 243.443 166.303 288.866Z" fill="#479BB1"/>
<mask id="mask6_159_62" style="mask-type:luminance" maskUnits="userSpaceOnUse" x="166" y="123" width="167" height="166">
<path d="M332.484 123.598H166.305V288.866H332.484V123.598Z" fill="white"/>
</mask>
<g mask="url(#mask6_159_62)">
<path d="M165.849 123.13C120.211 123.13 83.2148 160.127 83.2148 205.764C83.2148 251.402 120.211 288.398 165.849 288.398H166.76C212.398 288.398 249.394 251.402 249.394 205.764C249.394 160.127 212.398 123.13 166.76 123.13H165.849Z" fill="#FA8958"/>
<path d="M332.027 123.13C286.389 123.13 249.393 160.127 249.393 205.764C249.393 251.402 286.389 288.398 332.027 288.398H332.938C378.575 288.398 415.572 251.402 415.572 205.764C415.572 160.127 378.575 123.13 332.938 123.13H332.027Z" fill="#FA8958"/>
</g>
<mask id="mask7_159_62" style="mask-type:luminance" maskUnits="userSpaceOnUse" x="332" y="123" width="167" height="166">
<path d="M498.662 288.866V123.598L332.483 123.598V288.866H498.662Z" fill="white"/>
</mask>
<g mask="url(#mask7_159_62)">
<path d="M416.028 40.9629H415.117C369.479 40.9629 332.482 77.9595 332.482 123.597C332.482 169.235 369.479 206.231 415.117 206.231H416.028C461.665 206.231 498.662 169.235 498.662 123.597C498.662 77.9595 461.665 40.9629 416.028 40.9629Z" fill="#F7AB37"/>
<path d="M416.028 206.23H415.117C369.479 206.23 332.482 243.227 332.482 288.865C332.482 334.502 369.479 371.499 415.117 371.499H416.028C461.665 371.499 498.662 334.502 498.662 288.865C498.662 243.227 461.665 206.23 416.028 206.23Z" fill="#F7AB37"/>
</g>
</g>
<mask id="mask8_159_62" style="mask-type:luminance" maskUnits="userSpaceOnUse" x="498" y="123" width="502" height="166">
<path d="M999.93 123.598H498.662V288.866H999.93V123.598Z" fill="white"/>
</mask>
<g mask="url(#mask8_159_62)">
<path d="M999.93 123.598H498.662V288.866H999.93V123.598Z" fill="#FFDF8B"/>
<path fill-rule="evenodd" clip-rule="evenodd" d="M665.75 288.866H665.751V124.065V123.598H665.75C665.751 123.753 665.751 123.909 665.751 124.065C665.751 169.702 628.347 206.699 582.207 206.699C536.066 206.699 498.662 169.702 498.662 124.065C498.662 123.909 498.662 123.753 498.663 123.598H498.662V124.065V288.866H498.663C498.918 243.443 536.224 206.699 582.207 206.699C628.19 206.699 665.496 243.443 665.75 288.866Z" fill="#479BB1"/>
<mask id="mask9_159_62" style="mask-type:luminance" maskUnits="userSpaceOnUse" x="665" y="123" width="168" height="166">
<path d="M832.841 123.598H665.752V288.866H832.841V123.598Z" fill="white"/>
</mask>
<g mask="url(#mask9_159_62)">
<path d="M664.843 123.13C619.206 123.13 582.209 160.127 582.209 205.764C582.209 251.402 619.206 288.398 664.843 288.398H666.664C712.301 288.398 749.298 251.402 749.298 205.764C749.298 160.127 712.301 123.13 666.664 123.13H664.843Z" fill="#FA8958"/>
<path d="M831.933 123.13C786.295 123.13 749.299 160.127 749.299 205.764C749.299 251.402 786.295 288.398 831.933 288.398H833.754C879.391 288.398 916.388 251.402 916.388 205.764C916.388 160.127 879.391 123.13 833.754 123.13H831.933Z" fill="#FA8958"/>
</g>
<mask id="mask10_159_62" style="mask-type:luminance" maskUnits="userSpaceOnUse" x="832" y="123" width="168" height="166">
<path d="M999.932 288.866V123.598L832.843 123.598V288.866H999.932Z" fill="white"/>
</mask>
<g mask="url(#mask10_159_62)">
<path d="M917.297 40.9629H915.476C869.838 40.9629 832.842 77.9595 832.842 123.597C832.842 169.235 869.838 206.231 915.476 206.231H917.297C962.934 206.231 999.931 169.235 999.931 123.597C999.931 77.9595 962.934 40.9629 917.297 40.9629Z" fill="#F7AB37"/>
<path d="M917.297 206.23H915.476C869.838 206.23 832.842 243.227 832.842 288.865C832.842 334.502 869.838 371.499 915.476 371.499H917.297C962.934 371.499 999.931 334.502 999.931 288.865C999.931 243.227 962.934 206.23 917.297 206.23Z" fill="#F7AB37"/>
</g>
</g>
<mask id="mask11_159_62" style="mask-type:luminance" maskUnits="userSpaceOnUse" x="999" y="123" width="500" height="166">
<path d="M1498.47 123.598H999.93V288.866H1498.47V123.598Z" fill="white"/>
</mask>
<g mask="url(#mask11_159_62)">
<path d="M1498.47 123.598H999.93V288.866H1498.47V123.598Z" fill="#FFDF8B"/>
<path fill-rule="evenodd" clip-rule="evenodd" d="M1166.11 288.866L1166.11 124.065V123.598C1166.11 123.753 1166.11 123.909 1166.11 124.065C1166.11 169.702 1128.91 206.699 1083.02 206.699C1037.13 206.699 999.93 169.702 999.93 124.065C999.93 123.909 999.93 123.753 999.931 123.598L999.93 124.065V288.866C1000.18 243.443 1037.29 206.699 1083.02 206.699C1128.75 206.699 1165.85 243.443 1166.11 288.866Z" fill="#479BB1"/>
<mask id="mask12_159_62" style="mask-type:luminance" maskUnits="userSpaceOnUse" x="1166" y="123" width="167" height="166">
<path d="M1332.29 123.598H1166.11V288.866H1332.29V123.598Z" fill="white"/>
</mask>
<g mask="url(#mask12_159_62)">
<path d="M1165.65 123.13C1120.02 123.13 1083.02 160.127 1083.02 205.764C1083.02 251.402 1120.02 288.398 1165.65 288.398H1166.56C1212.2 288.398 1249.2 251.402 1249.2 205.764C1249.2 160.127 1212.2 123.13 1166.56 123.13H1165.65Z" fill="#FA8958"/>
<path d="M1331.83 123.13C1286.2 123.13 1249.2 160.127 1249.2 205.764C1249.2 251.402 1286.2 288.398 1331.83 288.398H1332.74C1378.38 288.398 1415.38 251.402 1415.38 205.764C1415.38 160.127 1378.38 123.13 1332.74 123.13H1331.83Z" fill="#FA8958"/>
</g>
<mask id="mask13_159_62" style="mask-type:luminance" maskUnits="userSpaceOnUse" x="1332" y="123" width="167" height="166">
<path d="M1498.47 288.866V123.598L1332.29 123.598V288.866H1498.47Z" fill="white"/>
</mask>
<g mask="url(#mask13_159_62)">
<path d="M1415.83 40.9629H1414.92C1369.28 40.9629 1332.29 77.9595 1332.29 123.597C1332.29 169.235 1369.28 206.231 1414.92 206.231H1415.83C1461.47 206.231 1498.47 169.235 1498.47 123.597C1498.47 77.9595 1461.47 40.9629 1415.83 40.9629Z" fill="#F7AB37"/>
<path d="M1415.83 206.23H1414.92C1369.28 206.23 1332.29 243.227 1332.29 288.865C1332.29 334.502 1369.28 371.499 1414.92 371.499H1415.83C1461.47 371.499 1498.47 334.502 1498.47 288.865C1498.47 243.227 1461.47 206.23 1415.83 206.23Z" fill="#F7AB37"/>
</g>
</g>
<mask id="mask14_159_62" style="mask-type:luminance" maskUnits="userSpaceOnUse" x="1498" y="123" width="500" height="166">
<path d="M1997 123.598H1498.47V288.866H1997V123.598Z" fill="white"/>
</mask>
<g mask="url(#mask14_159_62)">
<path d="M1997 123.598H1498.47V288.866H1997V123.598Z" fill="#FFDF8B"/>
<path fill-rule="evenodd" clip-rule="evenodd" d="M1664.65 288.866V124.065V123.598C1664.65 123.753 1664.65 123.909 1664.65 124.065C1664.65 169.702 1627.44 206.699 1581.55 206.699C1535.67 206.699 1498.47 169.702 1498.47 124.065C1498.47 123.909 1498.47 123.753 1498.47 123.598V124.065V288.866C1498.73 243.443 1535.82 206.699 1581.55 206.699C1627.29 206.699 1664.39 243.443 1664.65 288.866Z" fill="#479BB1"/>
<mask id="mask15_159_62" style="mask-type:luminance" maskUnits="userSpaceOnUse" x="1664" y="123" width="167" height="166">
<path d="M1830.83 123.598H1664.65V288.866H1830.83V123.598Z" fill="white"/>
</mask>
<g mask="url(#mask15_159_62)">
<path d="M1664.19 123.13C1618.55 123.13 1581.55 160.127 1581.55 205.764C1581.55 251.402 1618.55 288.398 1664.19 288.398H1665.1C1710.74 288.398 1747.73 251.402 1747.73 205.764C1747.73 160.127 1710.74 123.13 1665.1 123.13H1664.19Z" fill="#FA8958"/>
<path d="M1830.37 123.13C1784.73 123.13 1747.74 160.127 1747.74 205.764C1747.74 251.402 1784.73 288.398 1830.37 288.398H1831.28C1876.92 288.398 1913.92 251.402 1913.92 205.764C1913.92 160.127 1876.92 123.13 1831.28 123.13H1830.37Z" fill="#FA8958"/>
</g>
</g>
</g>
</g>
<defs>
<clipPath id="clip0_159_62">
<rect width="1792" height="333.268" fill="white" transform="translate(0.125 -44.4023)"/>
</clipPath>
</defs>
</svg>
